<svg id="Capa_1" data-name="Capa 1" xmlns="http://www.w3.org/2000/svg" viewBox="0 0 1920 612"><defs><style>.cls-1{fill:#e0f7fc;}.cls-2{fill:#fff;}</style></defs><title>Artboard 4</title><rect class="cls-1" width="1920" height="612"/><path class="cls-2" d="M1191,93.57A45.43,45.43,0,0,0,1145.53,139h90.86A45.43,45.43,0,0,0,1191,93.57Z"/><path class="cls-2" d="M1117.77,111.24A27.76,27.76,0,0,0,1090,139h55.53A27.76,27.76,0,0,0,1117.77,111.24Z"/><path class="cls-2" d="M1250.7,124.7a14.3,14.3,0,0,0-14.3,14.3H1265A14.29,14.29,0,0,0,1250.7,124.7Z"/><path class="cls-2" d="M1136,273.69A23.31,23.31,0,0,0,1112.7,297h46.62A23.31,23.31,0,0,0,1136,273.69Z"/><path class="cls-2" d="M1098.46,282.76A14.24,14.24,0,0,0,1084.21,297h28.49A14.24,14.24,0,0,0,1098.46,282.76Z"/><path class="cls-2" d="M1166.66,289.66a7.34,7.34,0,0,0-7.34,7.34H1174A7.33,7.33,0,0,0,1166.66,289.66Z"/><path class="cls-2" d="M144,143.19A36.81,36.81,0,0,0,107.2,180h73.62A36.81,36.81,0,0,0,144,143.19Z"/><path class="cls-2" d="M84.71,157.51A22.49,22.49,0,0,0,62.21,180h45A22.49,22.49,0,0,0,84.71,157.51Z"/><path class="cls-2" d="M192.41,168.42A11.59,11.59,0,0,0,180.82,180H204A11.58,11.58,0,0,0,192.41,168.42Z"/><path class="cls-2" d="M177.16,525.48A27.52,27.52,0,0,0,149.64,553h55A27.52,27.52,0,0,0,177.16,525.48Z"/><path class="cls-2" d="M132.82,536.18A16.81,16.81,0,0,0,116,553h33.64A16.81,16.81,0,0,0,132.82,536.18Z"/><path class="cls-2" d="M213.34,544.34a8.66,8.66,0,0,0-8.66,8.66H222A8.66,8.66,0,0,0,213.34,544.34Z"/></svg>