<?xml version="1.0" encoding="utf-8"?>
<!-- Generator: Adobe Illustrator 22.1.0, SVG Export Plug-In . SVG Version: 6.00 Build 0)  -->
<svg version="1.1" id="Capa_1" xmlns="http://www.w3.org/2000/svg" xmlns:xlink="http://www.w3.org/1999/xlink" x="0px" y="0px"
	 viewBox="0 0 70 70" style="enable-background:new 0 0 70 70;" xml:space="preserve">
<style type="text/css">
	.st0{fill:#FFFFFF;}
</style>
<g>
	<path class="st0" d="M35,69.5C16,69.5,0.5,54,0.5,35S16,0.5,35,0.5c1.4,0,2.5,1.1,2.5,2.5S36.4,5.5,35,5.5
		C18.7,5.5,5.5,18.7,5.5,35S18.7,64.5,35,64.5S64.5,51.3,64.5,35c0-2.3-0.3-4.7-0.8-7c-0.3-1.3,0.5-2.7,1.8-3c1.3-0.3,2.7,0.5,3,1.8
		c0.7,2.7,1,5.4,1,8.2C69.5,54,54,69.5,35,69.5z"/>
</g>
</svg>
