<?xml version="1.0" encoding="utf-8"?>
<!-- Generator: Adobe Illustrator 21.1.0, SVG Export Plug-In . SVG Version: 6.00 Build 0)  -->
<svg version="1.1" xmlns="http://www.w3.org/2000/svg" xmlns:xlink="http://www.w3.org/1999/xlink" x="0px" y="0px"
	 viewBox="0 0 597.2 326.5" style="enable-background:new 0 0 597.2 326.5;" xml:space="preserve">
<style type="text/css">
	.st0{fill:#FFFFFF;}
	.st1{fill:#A3DBE8;}
	.st2{fill:#004254;}
	.st3{fill:#CC0000;}
	.st4{fill:#94D3DD;}
	.st5{fill:#242D3C;}
	.st6{fill:#AA0000;}
	.st7{fill:#D9D8D7;}
</style>
<g id="bg">
	<g id="blueprint">
		
			<rect x="336.9" y="57.7" transform="matrix(0.7071 -0.7071 0.7071 0.7071 31.6311 362.9586)" class="st0" width="234" height="171.3"/>
		
			<rect x="395.3" y="183.6" transform="matrix(0.7071 -0.7071 0.7071 0.7071 14.7959 403.6267)" class="st1" width="198.7" height="0.7"/>
		
			<rect x="387.9" y="176.2" transform="matrix(0.7071 -0.7071 0.7071 0.7071 17.8525 396.2401)" class="st1" width="198.7" height="0.7"/>
		
			<rect x="380.5" y="168.8" transform="matrix(0.7071 -0.7071 0.7071 0.7071 20.9132 388.8494)" class="st1" width="198.7" height="0.7"/>
		
			<rect x="373.1" y="161.4" transform="matrix(0.7071 -0.7071 0.7071 0.7071 23.984 381.4487)" class="st1" width="198.7" height="0.7"/>
		
			<rect x="365.7" y="154" transform="matrix(0.7071 -0.7071 0.7071 0.7071 27.0447 374.058)" class="st1" width="198.7" height="0.7"/>
		
			<rect x="358.3" y="146.6" transform="matrix(0.7071 -0.7071 0.7071 0.7071 30.1013 366.6714)" class="st1" width="198.7" height="0.7"/>
		
			<rect x="350.9" y="139.2" transform="matrix(0.7071 -0.7071 0.7071 0.7071 33.1808 359.2518)" class="st1" width="198.7" height="0.7"/>
		
			<rect x="343.5" y="131.8" transform="matrix(0.7071 -0.7071 0.7071 0.7071 36.2345 351.8582)" class="st1" width="198.7" height="0.7"/>
		
			<rect x="336.1" y="124.4" transform="matrix(0.7071 -0.7071 0.7071 0.7071 39.3052 344.4574)" class="st1" width="198.7" height="0.7"/>
		
			<rect x="328.7" y="117" transform="matrix(0.7071 -0.7071 0.7071 0.7071 42.3659 337.0667)" class="st1" width="198.7" height="0.7"/>
		
			<rect x="321.3" y="109.6" transform="matrix(0.7071 -0.7071 0.7071 0.7071 45.4296 329.683)" class="st1" width="198.7" height="0.7"/>
		
			<rect x="313.9" y="102.3" transform="matrix(0.7071 -0.7071 0.7071 0.7071 48.4832 322.2894)" class="st1" width="198.7" height="0.7"/>
		
			<rect x="509" y="19.9" transform="matrix(0.7071 -0.7071 0.7071 0.7071 87.0903 385.9259)" class="st1" width="0.7" height="135.9"/>
		
			<rect x="516.4" y="12.5" transform="matrix(0.7071 -0.7071 0.7071 0.7071 94.4999 388.9954)" class="st1" width="0.7" height="135.9"/>
		
			<rect x="501.6" y="27.2" transform="matrix(0.7071 -0.7071 0.7071 0.7071 79.7084 382.8639)" class="st1" width="0.7" height="135.9"/>
		
			<rect x="494.2" y="34.7" transform="matrix(0.7071 -0.7071 0.7071 0.7071 72.2989 379.7944)" class="st1" width="0.7" height="135.9"/>
		
			<rect x="486.9" y="42" transform="matrix(0.7071 -0.7071 0.7071 0.7071 64.9269 376.7425)" class="st1" width="0.7" height="135.9"/>
		
			<rect x="479.5" y="49.4" transform="matrix(0.7071 -0.7071 0.7071 0.7071 57.5145 373.68)" class="st1" width="0.7" height="135.9"/>
		
			<rect x="472.1" y="56.8" transform="matrix(0.7071 -0.7071 0.7071 0.7071 50.1431 370.6166)" class="st1" width="0.7" height="135.9"/>
		
			<rect x="464.7" y="64.2" transform="matrix(0.7071 -0.7071 0.7071 0.7071 42.7336 367.5471)" class="st1" width="0.7" height="135.9"/>
		
			<rect x="457.3" y="71.6" transform="matrix(0.7071 -0.7071 0.7071 0.7071 35.3552 364.5007)" class="st1" width="0.7" height="135.9"/>
		
			<rect x="449.9" y="79" transform="matrix(0.7071 -0.7071 0.7071 0.7071 27.9428 361.4242)" class="st1" width="0.7" height="135.9"/>
		
			<rect x="442.5" y="86.4" transform="matrix(0.7071 -0.7071 0.7071 0.7071 20.5362 358.3617)" class="st1" width="0.7" height="135.9"/>
		
			<rect x="435.1" y="93.8" transform="matrix(0.7071 -0.7071 0.7071 0.7071 13.1584 355.3039)" class="st1" width="0.7" height="135.9"/>
		
			<rect x="427.7" y="101.2" transform="matrix(0.7071 -0.7071 0.7071 0.7071 5.7518 352.2332)" class="st1" width="0.7" height="135.9"/>
		
			<rect x="420.3" y="108.6" transform="matrix(0.7071 -0.7071 0.7071 0.7071 -1.6231 349.1824)" class="st1" width="0.7" height="135.9"/>
		
			<rect x="412.9" y="116" transform="matrix(0.7071 -0.7071 0.7071 0.7071 -9.0326 346.1129)" class="st1" width="0.7" height="135.9"/>
		
			<rect x="405.5" y="123.4" transform="matrix(0.7071 -0.7071 0.7071 0.7071 -16.4075 343.048)" class="st1" width="0.7" height="135.9"/>
		
			<rect x="398.1" y="130.8" transform="matrix(0.7071 -0.7071 0.7071 0.7071 -23.8241 339.9814)" class="st1" width="0.7" height="135.9"/>
		
			<rect x="390.8" y="138.1" transform="matrix(0.7071 -0.7071 0.7071 0.7071 -31.1919 336.9336)" class="st1" width="0.7" height="135.9"/>
		<path class="st1" d="M575.2,121.1L431.8,264.6l-99.1-99.1L476.1,22L575.2,121.1z M431.8,258.6l137.5-137.5l-93.2-93.2L338.6,165.5
			L431.8,258.6z"/>
		<polygon class="st1" points="480.6,23.5 476.1,27.9 471.7,23.5 474.6,20.5 476.1,22 477.6,20.5 		"/>
		<polygon class="st1" points="576.7,122.6 573.7,125.5 569.3,121.1 573.7,116.7 576.7,119.6 575.2,121.1 		"/>
		<polygon class="st1" points="338.6,165.5 334.2,169.9 331.2,166.9 332.7,165.5 331.2,164 334.1,161 		"/>
		<polygon class="st1" points="436.2,263.1 433.2,266 431.8,264.6 430.3,266 427.3,263.1 431.8,258.6 		"/>
		<path class="st1" d="M209.9,120.8v146.7c0,14,11.3,25.3,25.3,25.3c0,0,0,0,0,0h221.7v-172L209.9,120.8z"/>
		<path class="st2" d="M235.2,242.2v-172c-14,0-25.3,11.3-25.3,25.3v172C209.9,253.5,221.2,242.2,235.2,242.2
			C235.2,242.2,235.2,242.2,235.2,242.2z"/>
		<path class="st0" d="M427.9,263.8H288.3v-98.1h139.6V263.8z M292.9,259.2h130.3v-88.8H292.9V259.2z"/>
		<path class="st0" d="M427.9,170.4H288.3v-20.7h139.6V170.4z M292.9,165.8h130.3v-11.5H292.9V165.8z"/>
		<path class="st0" d="M376,253.4h-77.3v-35.7H376V253.4z M303.3,248.8h68v-26.5h-68V248.8z"/>
		<path class="st0" d="M334.4,211.9h-35.7v-35.8h35.7V211.9z M303.3,207.3h26.5v-26.5h-26.5L303.3,207.3z"/>
		<path class="st0" d="M376,211.9h-35.7v-35.8h35.7L376,211.9z M344.8,207.3h26.5v-26.5h-26.5L344.8,207.3z"/>
		<path class="st0" d="M417.5,211.9h-35.7v-35.8h35.7V211.9z M386.3,207.3h26.5v-26.5h-26.5L386.3,207.3z"/>
		<rect x="381.7" y="217.7" class="st0" width="35.7" height="4.6"/>
		<rect x="381.7" y="228.1" class="st0" width="35.7" height="4.6"/>
		<rect x="381.7" y="238.4" class="st0" width="20.2" height="4.6"/>
		<rect x="277.2" y="157.7" class="st0" width="39.4" height="4.6"/>
		<rect x="277.2" y="191.7" class="st0" width="39.4" height="4.6"/>
		<rect x="277.2" y="233.2" class="st0" width="39.4" height="4.6"/>
		<path class="st0" d="M272.3,162.4h-5v-4.6h5V162.4z M262.3,162.4h-5v-4.6h5V162.4z"/>
		<path class="st0" d="M272.3,196.4h-5v-4.6h5V196.4z M262.3,196.4h-5v-4.6h5V196.4z"/>
		<path class="st0" d="M272.3,237.9h-5v-4.6h5V237.9z M262.3,237.9h-5v-4.6h5V237.9z"/>
		<rect x="288.3" y="132.9" class="st0" width="28.3" height="4.6"/>
		<rect x="352.9" y="276" class="st0" width="26" height="4.6"/>
		<rect x="288.3" y="276" class="st0" width="56.8" height="4.6"/>
	</g>
</g>
<g id="cafe-taza">
	<g id="cafe">
		<path class="st3" d="M108.3,297.3c-15.9,27.8-51.3,37.5-79.1,21.6s-37.5-51.3-21.6-79.1s51.3-37.5,79.1-21.6c0,0,0,0,0,0
			C114.6,234,124.2,269.4,108.3,297.3z"/>
		<path class="st0" d="M92,287.9c-10.7,18.8-34.7,25.3-53.5,14.6S13.2,267.8,24,249c10.7-18.8,34.7-25.3,53.4-14.6
			C96.2,245.2,102.7,269.1,92,287.9C92,287.9,92,287.9,92,287.9z"/>
		<path class="st2" d="M86.6,284.8c-9,15.8-29.1,21.3-44.9,12.3c-15.8-9-21.3-29.1-12.3-44.9s29.1-21.3,44.9-12.3c0,0,0,0,0,0
			C90.1,248.9,95.6,269,86.6,284.8C86.6,284.8,86.6,284.8,86.6,284.8z"/>
	</g>
</g>
<g id="cafe-mango_1_">
	<g id="cafe-mango">
		<path class="st1" d="M101.8,312.3c-1.2,1.2-2.8,1.8-4.4,1.8c-1.7,0-3.3-0.7-4.4-1.8L79.7,299l8.9-8.9l13.3,13.3
			C104.3,305.9,104.3,309.8,101.8,312.3C101.9,312.3,101.9,312.3,101.8,312.3L101.8,312.3z"/>
		<path class="st4" d="M88.6,290.2l-8.9,8.8l5,5c3.4-2.5,6.3-5.5,8.8-8.9L88.6,290.2z"/>
	</g>
</g>
<g id="cafe-sombra_1_">
	<g id="cafe-sombra">
		<path class="st5" d="M39.8,262.5c9-15.8,29.1-21.3,44.9-12.3c0.4,0.3,0.8,0.5,1.2,0.8c-9.6-15.4-29.9-20.1-45.3-10.5
			s-20.1,29.9-10.5,45.3c2.6,4.2,6.2,7.8,10.3,10.4C34.1,286,33.8,273.1,39.8,262.5z"/>
	</g>
</g>
<g id="regla_1_">
	<g id="regla">
		<rect x="268.8" y="63.3" class="st3" width="247" height="30.9"/>
		<rect x="268.8" y="83.9" class="st6" width="247" height="10.3"/>
		<rect x="273.7" y="63.3" class="st0" width="2.9" height="5.1"/>
		<rect x="281.5" y="63.3" class="st0" width="2.9" height="5.1"/>
		<rect x="289.3" y="63.3" class="st0" width="2.9" height="5.1"/>
		<rect x="297.1" y="63.3" class="st0" width="3" height="5.1"/>
		<rect x="304.9" y="63.3" class="st0" width="2.9" height="5.1"/>
		<rect x="312.7" y="63.3" class="st0" width="2.9" height="5.1"/>
		<rect x="320.5" y="63.3" class="st0" width="3" height="5.1"/>
		<rect x="328.4" y="63.3" class="st0" width="2.9" height="5.1"/>
		<rect x="336.2" y="63.3" class="st0" width="2.9" height="5.1"/>
		<rect x="344" y="63.3" class="st0" width="2.9" height="5.1"/>
		<rect x="351.8" y="63.3" class="st0" width="2.9" height="5.1"/>
		<rect x="359.6" y="63.3" class="st0" width="3" height="5.1"/>
		<rect x="367.4" y="63.3" class="st0" width="2.9" height="5.1"/>
		<rect x="375.2" y="63.3" class="st0" width="2.9" height="5.1"/>
		<rect x="383" y="63.3" class="st0" width="2.9" height="5.1"/>
		<rect x="390.8" y="63.3" class="st0" width="2.9" height="5.1"/>
		<rect x="398.6" y="63.3" class="st0" width="2.9" height="5.1"/>
		<rect x="406.5" y="63.3" class="st0" width="2.9" height="5.1"/>
		<rect x="414.3" y="63.3" class="st0" width="2.9" height="5.1"/>
		<rect x="422.1" y="63.3" class="st0" width="3" height="5.1"/>
		<rect x="429.9" y="63.3" class="st0" width="2.9" height="5.1"/>
		<rect x="437.7" y="63.3" class="st0" width="2.9" height="5.1"/>
		<rect x="445.5" y="63.3" class="st0" width="2.9" height="5.1"/>
		<rect x="453.3" y="63.3" class="st0" width="2.9" height="5.1"/>
		<rect x="461.1" y="63.3" class="st0" width="2.9" height="5.1"/>
		<rect x="469" y="63.3" class="st0" width="2.9" height="5.1"/>
		<rect x="476.8" y="63.3" class="st0" width="2.9" height="5.1"/>
		<rect x="484.6" y="63.3" class="st0" width="3" height="5.1"/>
		<rect x="492.4" y="63.3" class="st0" width="2.9" height="5.1"/>
		<rect x="500.2" y="63.3" class="st0" width="2.9" height="5.1"/>
		<rect x="508" y="63.3" class="st0" width="2.9" height="5.1"/>
	</g>
</g>
<g id="lapiz2_1_">
	<g id="lapiz2">
		<rect x="164" y="87.1" class="st3" width="18.5" height="188.7"/>
		
			<rect x="164" y="275.8" transform="matrix(1 -1.221729e-03 1.221729e-03 1 -0.3395 0.2119)" class="st7" width="18.5" height="4.5"/>
		<path class="st5" d="M182.5,280.2v3.3c0,5.1-4.1,9.3-9.3,9.3c-5.1,0-9.3-4.1-9.3-9.3v-3.3H182.5z"/>
		<polygon class="st7" points="182.5,87.1 176.3,75.2 170.2,75.2 164,87.1 		"/>
		<polygon class="st5" points="176.3,75.2 173.2,69.3 170.2,75.2 		"/>
	</g>
</g>
<g id="escuadra_1_">
	<g id="escuadra">
		<path class="st2" d="M331.8,323.6h141.4V182.2L331.8,323.6z M382.8,302.4l69.2-69.2v69.2L382.8,302.4z"/>
		<rect x="469.4" y="315.6" class="st0" width="3.8" height="1.8"/>
		<rect x="469.4" y="308.5" class="st0" width="3.8" height="1.8"/>
		<rect x="469.4" y="301.4" class="st0" width="3.8" height="1.8"/>
		<rect x="469.4" y="294.4" class="st0" width="3.8" height="1.8"/>
		<rect x="469.4" y="287.3" class="st0" width="3.8" height="1.8"/>
		<rect x="469.4" y="280.2" class="st0" width="3.8" height="1.8"/>
		<rect x="469.4" y="273.2" class="st0" width="3.8" height="1.8"/>
		<rect x="469.4" y="266.1" class="st0" width="3.8" height="1.8"/>
		<rect x="469.4" y="259" class="st0" width="3.8" height="1.8"/>
		<rect x="469.4" y="251.9" class="st0" width="3.8" height="1.8"/>
		<rect x="469.4" y="244.9" class="st0" width="3.8" height="1.8"/>
		<rect x="469.4" y="237.8" class="st0" width="3.8" height="1.8"/>
		<rect x="469.4" y="230.7" class="st0" width="3.8" height="1.8"/>
		<rect x="469.4" y="223.7" class="st0" width="3.8" height="1.8"/>
		<rect x="469.4" y="216.6" class="st0" width="3.8" height="1.8"/>
		<rect x="469.4" y="209.5" class="st0" width="3.8" height="1.8"/>
		<rect x="469.4" y="202.5" class="st0" width="3.8" height="1.9"/>
		<rect x="469.4" y="195.4" class="st0" width="3.8" height="1.8"/>
		<rect x="469.4" y="188.3" class="st0" width="3.8" height="1.8"/>
	</g>
</g>
<g id="lapiz3_1_">
	<g id="lapiz3">
		<rect x="498.2" y="168.1" class="st3" width="18.5" height="107.6"/>
		
			<rect x="498.2" y="275.8" transform="matrix(1 -1.221729e-03 1.221729e-03 1 -0.3392 0.6202)" class="st7" width="18.5" height="4.5"/>
		<path class="st5" d="M516.7,280.2v3.3c0,5.1-4.1,9.3-9.3,9.3c-5.1,0-9.3-4.1-9.3-9.3v-3.3H516.7z"/>
		<polygon class="st7" points="516.7,168.1 510.5,156.3 504.4,156.3 498.2,168.1 		"/>
		<polygon class="st5" points="510.5,156.3 507.4,150.4 504.4,156.3 		"/>
	</g>
</g>
<g id="lapiz1_1_">
	<g id="lapiz1">
		<rect x="116.2" y="67.3" class="st1" width="18.5" height="107.6"/>
		
			<rect x="116.2" y="62.9" transform="matrix(1 -1.221729e-03 1.221729e-03 1 -7.946752e-02 0.1533)" class="st7" width="18.5" height="4.5"/>
		<path class="st5" d="M116.2,62.9v-3.3c0-5.1,4.1-9.3,9.3-9.3c5.1,0,9.3,4.1,9.3,9.3v3.3H116.2z"/>
		<polygon class="st7" points="116.2,175 122.4,186.8 128.5,186.8 134.7,175 		"/>
		<polygon class="st5" points="122.4,186.8 125.5,192.8 128.5,186.8 		"/>
	</g>
</g>
</svg>
