<svg xmlns="http://www.w3.org/2000/svg" viewBox="0 0 21.99 22"><defs><style>.cls-1{fill:#c00;fill-rule:evenodd;}</style></defs><title>Asset 2</title><g id="Layer_2" data-name="Layer 2"><g id="Capa_1" data-name="Capa 1"><path class="cls-1" d="M20.77,11.73,16,15.37,20.77,19V11.73Zm-.06,8.76a.51.51,0,0,1-.08.11l0,0a.53.53,0,0,1-.38.16H1.76a.53.53,0,0,1-.38-.16.55.55,0,0,1-.1-.13L7.4,15.86l0,0,3.25-2.46a.53.53,0,0,1,.65,0l3.26,2.46h0l6.12,4.63ZM1.22,19,6,15.37l-3.31-2.5-.05,0L1.22,11.73V19Zm0-8.8,1.23.93v-4l-1,1-.06.06a.55.55,0,0,0-.16.19.54.54,0,0,0-.05.24v1.63ZM2.45,5.42V1.91A1.92,1.92,0,0,1,4.36,0h9.52a.61.61,0,0,1,.47.22l5,5h0l1.95,2A1.72,1.72,0,0,1,22,8.58V20.24a1.75,1.75,0,0,1-.48,1.2l0,0a1.75,1.75,0,0,1-1.24.51H1.76A1.76,1.76,0,0,1,0,20.24V8.58A1.72,1.72,0,0,1,.67,7.2L2.45,5.42Zm17.1,1.72v4l1.23-.93V8.58a.54.54,0,0,0-.05-.24.53.53,0,0,0-.16-.19l-.09-.08-.93-.93ZM7,11H12.2a.61.61,0,0,0,0-1.22H7A.61.61,0,0,0,7,11Zm0-2.3h8a.61.61,0,0,0,0-1.22H7A.61.61,0,0,0,7,8.71ZM3.67,12.06V1.91a.69.69,0,0,1,.69-.69h8.91V4.81a1.8,1.8,0,0,0,.53,1.28h0a1.8,1.8,0,0,0,1.27.53h3.26v5.44L15,14.61l-2.9-2.19a1.74,1.74,0,0,0-2.12,0L7,14.61,3.67,12.06ZM17.8,5.4,14.49,2.08V4.81a.58.58,0,0,0,.17.41h0a.58.58,0,0,0,.41.17Z"/></g></g></svg>