<?xml version="1.0" encoding="utf-8"?>
<!-- Generator: Adobe Illustrator 21.1.0, SVG Export Plug-In . SVG Version: 6.00 Build 0)  -->
<svg version="1.1" xmlns="http://www.w3.org/2000/svg" xmlns:xlink="http://www.w3.org/1999/xlink" x="0px" y="0px"
	 viewBox="0 0 147.7 173.7" style="enable-background:new 0 0 147.7 173.7;" xml:space="preserve">
<style type="text/css">
	.st0{fill:#004254;}
	.st1{fill:#00212A;}
	.st2{fill:#CC0000;}
	.st3{fill:#A3DBE8;}
	.st4{fill:#00333F;}
	.st5{clip-path:url(#SVGID_2_);fill:#FFFFFF;}
	.st6{fill:none;stroke:#FFFFFF;stroke-width:1.83;stroke-miterlimit:10;}
	.st7{fill:none;stroke:#EEFBFF;stroke-width:1.83;stroke-miterlimit:10;}
	.st8{fill:#B50000;}
</style>
<g id="engrane1">
	<path class="st0" d="M76.4,41.7c0-3.9,3-7.2,6.9-7.6c-0.4-2.3-1-4.5-1.8-6.7c-3.8,1.8-8.3,0.1-10.1-3.7c-1.5-3.3-0.5-7.3,2.5-9.4
		c-1.5-1.8-3.1-3.4-4.9-4.9c-2.5,3.4-7.3,4.1-10.7,1.6C55.6,8.9,54.6,5,56,1.8C53.8,1,51.6,0.4,49.3,0c-0.4,3.9-3.7,6.9-7.6,6.9
		c-3.9,0-7.2-3-7.6-6.9c-2.3,0.4-4.5,1-6.7,1.8c1.8,3.8,0.1,8.3-3.7,10.1c-3.3,1.6-7.3,0.5-9.4-2.5c-1.8,1.5-3.4,3.1-4.9,4.9
		c3.5,2.4,4.3,7.1,2,10.6c-2.1,3.1-6.2,4.2-9.6,2.6C1,29.6,0.4,31.8,0,34.1c3.9,0.4,6.9,3.6,6.9,7.6c0,3.9-3,7.2-6.9,7.6
		c0.4,2.3,1,4.5,1.8,6.7c3.8-1.8,8.4-0.1,10.1,3.7c1.5,3.3,0.5,7.3-2.5,9.4c1.5,1.8,3.1,3.4,4.9,4.9c2.4-3.4,7.2-4.3,10.6-1.8
		c3,2.1,4.1,6.1,2.5,9.4c2.2,0.8,4.4,1.4,6.7,1.8c0.4-4.2,4.1-7.3,8.3-6.9c3.7,0.3,6.6,3.2,6.9,6.9c2.3-0.4,4.5-1,6.7-1.8
		c-1.7-3.9,0.1-8.3,4-10c3.2-1.4,7-0.4,9.1,2.4c1.8-1.5,3.4-3.1,4.9-4.9c-3.4-2.4-4.2-7.2-1.8-10.6c2.1-3,6.1-4,9.4-2.5
		c0.8-2.2,1.4-4.4,1.8-6.7C79.5,48.9,76.4,45.6,76.4,41.7z M41.7,69.9c-15.6,0-28.3-12.6-28.3-28.3s12.6-28.3,28.3-28.3
		s28.3,12.6,28.3,28.3S57.3,69.9,41.7,69.9z"/>
	<circle class="st1" cx="41.7" cy="41.7" r="11.3"/>
	<circle class="st2" cx="41.7" cy="41.7" r="5.6"/>
	<path class="st3" d="M41.7,63.4L41.7,63.4c-1.4,0-2.8-0.2-4.2-0.4l0.8-3.9c1.1,0.2,2.3,0.3,3.5,0.3L41.7,63.4z M45.9,63l-0.8-3.9
		c1.1-0.2,2.3-0.6,3.3-1l1.5,3.7C48.7,62.3,47.3,62.7,45.9,63z M33.4,61.8c-1.3-0.5-2.6-1.2-3.8-2l2.2-3.3c1,0.6,2,1.2,3.1,1.6
		L33.4,61.8z M53.8,59.8l-2.2-3.3c1-0.7,1.9-1.4,2.7-2.2l2.8,2.8C56.1,58.1,55,59,53.8,59.8L53.8,59.8z M26.3,57.1
		c-1-1-1.9-2.1-2.7-3.3l3.3-2.2c0.7,1,1.4,1.9,2.2,2.7L26.3,57.1z M59.8,53.8l-3.3-2.2c0.6-1,1.2-2,1.6-3.1l3.7,1.5
		C61.2,51.3,60.6,52.6,59.8,53.8L59.8,53.8z M21.6,50c-0.5-1.3-1-2.6-1.3-4l3.9-0.8c0.2,1.1,0.6,2.3,1,3.3L21.6,50z M63,45.9
		l-3.9-0.8c0.2-1.1,0.3-2.3,0.3-3.5v-0.1h4v0.1C63.4,43.1,63.3,44.5,63,45.9z M19.9,41.7L19.9,41.7c0-1.5,0.1-2.9,0.4-4.2l3.9,0.8
		c-0.2,1.1-0.3,2.3-0.3,3.4L19.9,41.7z M59.1,38.1c-0.2-1.1-0.6-2.3-1-3.3l3.7-1.5c0.5,1.3,1,2.7,1.2,4.1L59.1,38.1z M25.2,34.9
		l-3.7-1.5c0.5-1.3,1.2-2.6,2-3.8l3.3,2.2C26.2,32.8,25.7,33.8,25.2,34.9z M56.4,31.7c-0.7-1-1.4-1.9-2.2-2.7l2.8-2.8
		c1,1,1.9,2.1,2.7,3.3L56.4,31.7z M29.1,29.1l-2.8-2.8c1-1,2.1-1.9,3.3-2.7l2.2,3.3C30.8,27.6,29.9,28.3,29.1,29.1z M51.5,26.8
		c-1-0.6-2-1.2-3.1-1.6l1.5-3.7c1.3,0.5,2.6,1.2,3.8,2L51.5,26.8z M34.8,25.3l-1.5-3.6c1.3-0.6,2.7-1,4.1-1.3l0.8,3.9
		C37,24.5,35.9,24.8,34.8,25.3z M45.1,24.3c-1.1-0.2-2.3-0.3-3.4-0.3h-0.1v-2v-2l0,0c1.4,0,2.8,0.1,4.2,0.4L45.1,24.3z"/>
</g>
<g id="engrane2">
	<path class="st2" d="M93.3,134.4c-1.1,2.6-3.9,3.9-6.6,3c-0.4,1.6-0.6,3.2-0.7,4.8c3-0.1,5.4,2.2,5.6,5.1c0.1,2.6-1.7,4.9-4.3,5.5
		c0.5,1.5,1.1,3,1.8,4.5c2.5-1.6,5.8-0.8,7.4,1.7c1.4,2.2,1,5.1-1,6.9c1.2,1.1,2.5,2.1,3.8,3c1.4-2.6,4.6-3.6,7.2-2.2
		c2.3,1.2,3.4,3.9,2.6,6.4c1.6,0.4,3.2,0.6,4.8,0.7c-0.1-3,2.2-5.4,5.2-5.5c2.6-0.1,4.8,1.7,5.4,4.2c1.5-0.5,3.1-1.1,4.5-1.8
		c-1.6-2.5-0.8-5.8,1.7-7.4c2.2-1.4,5.1-1,6.9,1c1.1-1.2,2.1-2.5,3-3.8c-2.6-1.4-3.6-4.6-2.2-7.2c1.2-2.3,3.9-3.4,6.4-2.6
		c0.4-1.6,0.6-3.2,0.7-4.8c-3,0.1-5.4-2.2-5.5-5.2c-0.1-2.6,1.7-4.8,4.2-5.4c-0.5-1.5-1.1-3.1-1.8-4.5c-2.5,1.6-5.8,0.8-7.4-1.7
		c-1.4-2.2-1-5.1,1-6.8c-1.2-1.1-2.5-2.1-3.8-3c-1.4,2.6-4.6,3.6-7.2,2.2c-2.3-1.2-3.4-3.9-2.6-6.4c-1.6-0.4-3.2-0.6-4.8-0.7
		c0.1,3-2.2,5.4-5.1,5.6c-2.6,0.1-4.9-1.7-5.5-4.3c-1.5,0.5-3.1,1.1-4.5,1.8c1.6,2.5,0.8,5.8-1.7,7.4c-2.2,1.4-5.1,1-6.8-1
		c-1.1,1.2-2.1,2.5-3,3.8C93.3,128.9,94.4,131.8,93.3,134.4z M120.9,131.7c6.8,2.9,9.9,10.7,7,17.5s-10.7,9.9-17.5,7
		s-9.9-10.7-7-17.5c0,0,0,0,0,0C106.4,132,114.2,128.8,120.9,131.7z"/>
	<path class="st0" d="M122.2,128.9c8.3,3.6,12.2,13.2,8.6,21.5c-3.6,8.3-13.2,12.2-21.5,8.6s-12.2-13.2-8.6-21.5c0,0,0,0,0,0
		C104.2,129.2,113.8,125.4,122.2,128.9z M111.7,153.4c5.2,2.2,11.2-0.2,13.5-5.4c2.2-5.2-0.2-11.2-5.4-13.5
		c-5.2-2.2-11.2,0.2-13.5,5.4c0,0,0,0,0,0.1C104.1,145.2,106.5,151.2,111.7,153.4z"/>
</g>
<g id="cara">
	<g>
		<circle class="st4" cx="89.3" cy="85.8" r="58.4"/>
	</g>
	<g>
		<defs>
			<circle id="SVGID_1_" cx="89.3" cy="85.8" r="58.4"/>
		</defs>
		<clipPath id="SVGID_2_">
			<use xlink:href="#SVGID_1_"  style="overflow:visible;"/>
		</clipPath>
		<circle class="st5" cx="91.2" cy="74.9" r="34.7"/>
		<rect x="56.5" y="74.9" class="st5" width="18.2" height="27.4"/>
		<polygon class="st5" points="60.1,102.3 47.3,102.3 56.5,78.5 		"/>
		<polygon class="st5" points="103,122.3 58.3,122.3 56.5,102.3 107.6,98.6 		"/>
		<polygon class="st5" points="119.4,142.4 75.6,153.4 75.6,119.6 113.1,104.1 		"/>
		<polygon class="st5" points="100.3,116 114,110.5 124,85.8 100.3,89.5 		"/>
	</g>
	<rect x="97.5" y="40.2" class="st3" width="14.6" height="14.6"/>
	<polyline class="st6" points="109.4,43.8 103.9,49.3 101.2,46.6 	"/>
	<rect x="78.4" y="112.3" class="st3" width="5.5" height="5.5"/>
	<rect x="117.6" y="59.4" class="st0" width="9.1" height="9.1"/>
	<rect x="62" y="74" class="st0" width="3.6" height="3.7"/>
	<rect x="54.7" y="61.2" class="st3" width="7.3" height="7.3"/>
</g>
<g id="puzle1">
	<circle class="st2" cx="87.5" cy="61.2" r="4.6"/>
	<circle class="st2" cx="87.5" cy="103.2" r="4.6"/>
	<path class="st2" d="M103,86.7c-2.5,0-4.6-2-4.6-4.5s2-4.6,4.5-4.6c1,0,2,0.3,2.8,0.9V63.9H69.3v14.6c2-1.5,4.9-1.1,6.4,0.9
		c1.5,2,1.1,4.9-0.9,6.4c-1.6,1.2-3.9,1.2-5.5,0v14.6h36.5V85.8C105,86.4,104,86.7,103,86.7z"/>
	<line class="st7" x1="87.5" y1="86.7" x2="87.5" y2="84.9"/>
	<line class="st7" x1="87.5" y1="83.1" x2="87.5" y2="81.3"/>
	<line class="st7" x1="87.5" y1="79.4" x2="87.5" y2="77.6"/>
</g>
<g id="puzle2">
	<circle class="st0" cx="129.5" cy="107.7" r="3.6"/>
	<circle class="st0" cx="112.1" cy="90.4" r="3.7"/>
	<path class="st0" d="M108.5,119.6c0-2,1.6-3.7,3.6-3.7c2,0,3.7,1.6,3.7,3.6c0,1.1-0.5,2.1-1.3,2.8h12.2V93.1H97.5v12.2
		c1.3-1.5,3.6-1.7,5.1-0.4c1.5,1.3,1.7,3.6,0.4,5.1c-1.3,1.5-3.6,1.7-5.1,0.4c-0.1-0.1-0.3-0.2-0.4-0.4v12.2h12.2
		C109,121.6,108.5,120.6,108.5,119.6z"/>
	<line class="st6" x1="107.6" y1="107.7" x2="109.4" y2="107.7"/>
	<line class="st6" x1="111.2" y1="107.7" x2="113.1" y2="107.7"/>
	<line class="st6" x1="114.9" y1="107.7" x2="116.7" y2="107.7"/>
</g>
<g id="c">
	<g>
		<path class="st2" d="M9.3,122.5C2,129.7,2,141.4,9.2,148.6c0.1,0.1,0.1,0.1,0.2,0.2c26,23.3,26,23.2,26,23.2s0,0,25.8-23.2
			c7.3-7.2,7.3-18.9,0.2-26.2c-0.1-0.1-0.1-0.1-0.2-0.2c-9.4-9.4-18.5-5.2-25.9,1.4C27.8,117.2,18.6,113.2,9.3,122.5z"/>
		<path class="st8" d="M35.2,123.9c-7.4-6.6-16.6-10.7-25.9-1.4C2,129.7,2,141.4,9.2,148.6c0.1,0.1,0.1,0.1,0.2,0.2
			c22.5,20.1,25.5,22.8,25.9,23.1L35.2,123.9L35.2,123.9z"/>
	</g>
</g>
</svg>
