<svg xmlns="http://www.w3.org/2000/svg" viewBox="0 0 321 154" id="el_rkXgQhjR4nm"><style>@-webkit-keyframes el_r1xzmnoRVnQ_B1Mb00EhX_Animation{0%{-webkit-transform: translate(258.234375px, 128.19921875px) translate(-258.234375px, -128.19921875px) translate(0px, 5px);transform: translate(258.234375px, 128.19921875px) translate(-258.234375px, -128.19921875px) translate(0px, 5px);}16.67%{-webkit-transform: translate(258.234375px, 128.19921875px) translate(-258.234375px, -128.19921875px) translate(0px, 0px);transform: translate(258.234375px, 128.19921875px) translate(-258.234375px, -128.19921875px) translate(0px, 0px);}50%{-webkit-transform: translate(258.234375px, 128.19921875px) translate(-258.234375px, -128.19921875px) translate(0px, -5px);transform: translate(258.234375px, 128.19921875px) translate(-258.234375px, -128.19921875px) translate(0px, -5px);}100%{-webkit-transform: translate(258.234375px, 128.19921875px) translate(-258.234375px, -128.19921875px) translate(0px, 5px);transform: translate(258.234375px, 128.19921875px) translate(-258.234375px, -128.19921875px) translate(0px, 5px);}}@keyframes el_r1xzmnoRVnQ_B1Mb00EhX_Animation{0%{-webkit-transform: translate(258.234375px, 128.19921875px) translate(-258.234375px, -128.19921875px) translate(0px, 5px);transform: translate(258.234375px, 128.19921875px) translate(-258.234375px, -128.19921875px) translate(0px, 5px);}16.67%{-webkit-transform: translate(258.234375px, 128.19921875px) translate(-258.234375px, -128.19921875px) translate(0px, 0px);transform: translate(258.234375px, 128.19921875px) translate(-258.234375px, -128.19921875px) translate(0px, 0px);}50%{-webkit-transform: translate(258.234375px, 128.19921875px) translate(-258.234375px, -128.19921875px) translate(0px, -5px);transform: translate(258.234375px, 128.19921875px) translate(-258.234375px, -128.19921875px) translate(0px, -5px);}100%{-webkit-transform: translate(258.234375px, 128.19921875px) translate(-258.234375px, -128.19921875px) translate(0px, 5px);transform: translate(258.234375px, 128.19921875px) translate(-258.234375px, -128.19921875px) translate(0px, 5px);}}@-webkit-keyframes el_SJyfmniRVhm_HkIkC0N37_Animation{0%{-webkit-transform: translate(270.380859375px, 128.22265625px) translate(-270.380859375px, -128.22265625px) translate(0px, 5px);transform: translate(270.380859375px, 128.22265625px) translate(-270.380859375px, -128.22265625px) translate(0px, 5px);}16.67%{-webkit-transform: translate(270.380859375px, 128.22265625px) translate(-270.380859375px, -128.22265625px) translate(0px, 0px);transform: translate(270.380859375px, 128.22265625px) translate(-270.380859375px, -128.22265625px) translate(0px, 0px);}50%{-webkit-transform: translate(270.380859375px, 128.22265625px) translate(-270.380859375px, -128.22265625px) translate(0px, -5px);transform: translate(270.380859375px, 128.22265625px) translate(-270.380859375px, -128.22265625px) translate(0px, -5px);}100%{-webkit-transform: translate(270.380859375px, 128.22265625px) translate(-270.380859375px, -128.22265625px) translate(0px, 5px);transform: translate(270.380859375px, 128.22265625px) translate(-270.380859375px, -128.22265625px) translate(0px, 5px);}}@keyframes el_SJyfmniRVhm_HkIkC0N37_Animation{0%{-webkit-transform: translate(270.380859375px, 128.22265625px) translate(-270.380859375px, -128.22265625px) translate(0px, 5px);transform: translate(270.380859375px, 128.22265625px) translate(-270.380859375px, -128.22265625px) translate(0px, 5px);}16.67%{-webkit-transform: translate(270.380859375px, 128.22265625px) translate(-270.380859375px, -128.22265625px) translate(0px, 0px);transform: translate(270.380859375px, 128.22265625px) translate(-270.380859375px, -128.22265625px) translate(0px, 0px);}50%{-webkit-transform: translate(270.380859375px, 128.22265625px) translate(-270.380859375px, -128.22265625px) translate(0px, -5px);transform: translate(270.380859375px, 128.22265625px) translate(-270.380859375px, -128.22265625px) translate(0px, -5px);}100%{-webkit-transform: translate(270.380859375px, 128.22265625px) translate(-270.380859375px, -128.22265625px) translate(0px, 5px);transform: translate(270.380859375px, 128.22265625px) translate(-270.380859375px, -128.22265625px) translate(0px, 5px);}}@-webkit-keyframes el_HJ0-X2iCV27_rkpMpCVhm_Animation{0%{-webkit-transform: translate(179.951171875px, 113.107421875px) translate(-179.951171875px, -113.107421875px) translate(0px, -5px);transform: translate(179.951171875px, 113.107421875px) translate(-179.951171875px, -113.107421875px) translate(0px, -5px);}16.67%{-webkit-transform: translate(179.951171875px, 113.107421875px) translate(-179.951171875px, -113.107421875px) translate(0px, 0px);transform: translate(179.951171875px, 113.107421875px) translate(-179.951171875px, -113.107421875px) translate(0px, 0px);}50%{-webkit-transform: translate(179.951171875px, 113.107421875px) translate(-179.951171875px, -113.107421875px) translate(0px, 5px);transform: translate(179.951171875px, 113.107421875px) translate(-179.951171875px, -113.107421875px) translate(0px, 5px);}100%{-webkit-transform: translate(179.951171875px, 113.107421875px) translate(-179.951171875px, -113.107421875px) translate(0px, -5px);transform: translate(179.951171875px, 113.107421875px) translate(-179.951171875px, -113.107421875px) translate(0px, -5px);}}@keyframes el_HJ0-X2iCV27_rkpMpCVhm_Animation{0%{-webkit-transform: translate(179.951171875px, 113.107421875px) translate(-179.951171875px, -113.107421875px) translate(0px, -5px);transform: translate(179.951171875px, 113.107421875px) translate(-179.951171875px, -113.107421875px) translate(0px, -5px);}16.67%{-webkit-transform: translate(179.951171875px, 113.107421875px) translate(-179.951171875px, -113.107421875px) translate(0px, 0px);transform: translate(179.951171875px, 113.107421875px) translate(-179.951171875px, -113.107421875px) translate(0px, 0px);}50%{-webkit-transform: translate(179.951171875px, 113.107421875px) translate(-179.951171875px, -113.107421875px) translate(0px, 5px);transform: translate(179.951171875px, 113.107421875px) translate(-179.951171875px, -113.107421875px) translate(0px, 5px);}100%{-webkit-transform: translate(179.951171875px, 113.107421875px) translate(-179.951171875px, -113.107421875px) translate(0px, -5px);transform: translate(179.951171875px, 113.107421875px) translate(-179.951171875px, -113.107421875px) translate(0px, -5px);}}@-webkit-keyframes el_Byp-XnsRNhX_S1Qj3RN3Q_Animation{0%{-webkit-transform: translate(197.880859375px, 113.16796875px) translate(-197.880859375px, -113.16796875px) translate(0px, -5px);transform: translate(197.880859375px, 113.16796875px) translate(-197.880859375px, -113.16796875px) translate(0px, -5px);}16.67%{-webkit-transform: translate(197.880859375px, 113.16796875px) translate(-197.880859375px, -113.16796875px) translate(0px, 0px);transform: translate(197.880859375px, 113.16796875px) translate(-197.880859375px, -113.16796875px) translate(0px, 0px);}50%{-webkit-transform: translate(197.880859375px, 113.16796875px) translate(-197.880859375px, -113.16796875px) translate(0px, 5px);transform: translate(197.880859375px, 113.16796875px) translate(-197.880859375px, -113.16796875px) translate(0px, 5px);}100%{-webkit-transform: translate(197.880859375px, 113.16796875px) translate(-197.880859375px, -113.16796875px) translate(0px, -5px);transform: translate(197.880859375px, 113.16796875px) translate(-197.880859375px, -113.16796875px) translate(0px, -5px);}}@keyframes el_Byp-XnsRNhX_S1Qj3RN3Q_Animation{0%{-webkit-transform: translate(197.880859375px, 113.16796875px) translate(-197.880859375px, -113.16796875px) translate(0px, -5px);transform: translate(197.880859375px, 113.16796875px) translate(-197.880859375px, -113.16796875px) translate(0px, -5px);}16.67%{-webkit-transform: translate(197.880859375px, 113.16796875px) translate(-197.880859375px, -113.16796875px) translate(0px, 0px);transform: translate(197.880859375px, 113.16796875px) translate(-197.880859375px, -113.16796875px) translate(0px, 0px);}50%{-webkit-transform: translate(197.880859375px, 113.16796875px) translate(-197.880859375px, -113.16796875px) translate(0px, 5px);transform: translate(197.880859375px, 113.16796875px) translate(-197.880859375px, -113.16796875px) translate(0px, 5px);}100%{-webkit-transform: translate(197.880859375px, 113.16796875px) translate(-197.880859375px, -113.16796875px) translate(0px, -5px);transform: translate(197.880859375px, 113.16796875px) translate(-197.880859375px, -113.16796875px) translate(0px, -5px);}}@-webkit-keyframes el_Sys-X2j04nQ_SJirh0E2m_Animation{0%{-webkit-transform: translate(246.8046875px, 58.470703125px) rotate(0deg) translate(-246.8046875px, -58.470703125px);transform: translate(246.8046875px, 58.470703125px) rotate(0deg) translate(-246.8046875px, -58.470703125px);}100%{-webkit-transform: translate(246.8046875px, 58.470703125px) rotate(-360deg) translate(-246.8046875px, -58.470703125px);transform: translate(246.8046875px, 58.470703125px) rotate(-360deg) translate(-246.8046875px, -58.470703125px);}}@keyframes el_Sys-X2j04nQ_SJirh0E2m_Animation{0%{-webkit-transform: translate(246.8046875px, 58.470703125px) rotate(0deg) translate(-246.8046875px, -58.470703125px);transform: translate(246.8046875px, 58.470703125px) rotate(0deg) translate(-246.8046875px, -58.470703125px);}100%{-webkit-transform: translate(246.8046875px, 58.470703125px) rotate(-360deg) translate(-246.8046875px, -58.470703125px);transform: translate(246.8046875px, 58.470703125px) rotate(-360deg) translate(-246.8046875px, -58.470703125px);}}@-webkit-keyframes el_B1DZm3sANhQ_H1xpiREh7_Animation{0%{-webkit-transform: translate(182.509765625px, 33.4140625px) rotate(0deg) translate(-182.509765625px, -33.4140625px);transform: translate(182.509765625px, 33.4140625px) rotate(0deg) translate(-182.509765625px, -33.4140625px);}100%{-webkit-transform: translate(182.509765625px, 33.4140625px) rotate(360deg) translate(-182.509765625px, -33.4140625px);transform: translate(182.509765625px, 33.4140625px) rotate(360deg) translate(-182.509765625px, -33.4140625px);}}@keyframes el_B1DZm3sANhQ_H1xpiREh7_Animation{0%{-webkit-transform: translate(182.509765625px, 33.4140625px) rotate(0deg) translate(-182.509765625px, -33.4140625px);transform: translate(182.509765625px, 33.4140625px) rotate(0deg) translate(-182.509765625px, -33.4140625px);}100%{-webkit-transform: translate(182.509765625px, 33.4140625px) rotate(360deg) translate(-182.509765625px, -33.4140625px);transform: translate(182.509765625px, 33.4140625px) rotate(360deg) translate(-182.509765625px, -33.4140625px);}}#el_rkXgQhjR4nm *{-webkit-animation-duration: 3s;animation-duration: 3s;-webkit-animation-iteration-count: infinite;animation-iteration-count: infinite;-webkit-animation-timing-function: cubic-bezier(0, 0, 1, 1);animation-timing-function: cubic-bezier(0, 0, 1, 1);}#el_ByLgm3iR42Q{fill: #004254;}#el_HkveQnjA4nX{fill: #004254;}#el_Syug7hoA43X{fill: #004254;-webkit-transform: translate(-8.69px, 11.15px) rotate(-3.92deg);transform: translate(-8.69px, 11.15px) rotate(-3.92deg);}#el_BJtgmhiRN37{fill: #004254;}#el_rJcxXhs0Vnm{fill: #004254;-webkit-transform: translate(-8.1px, 10.38px) rotate(-3.79deg);transform: translate(-8.1px, 10.38px) rotate(-3.79deg);}#el_H1slmnoANnQ{fill: #004254;-webkit-transform: translate(-9.2px, 10.95px) rotate(-3.97deg);transform: translate(-9.2px, 10.95px) rotate(-3.97deg);}#el_Sy3xm2o0E3X{fill: #004254;-webkit-transform: translate(-48.49px, 163.86px) rotate(-48.94deg);transform: translate(-48.49px, 163.86px) rotate(-48.94deg);}#el_By6x73sREnm{fill: #004254;-webkit-transform: translate(-46.64px, 158.58px) rotate(-49.12deg);transform: translate(-46.64px, 158.58px) rotate(-49.12deg);}#el_HyReX3oRNnQ{fill: #004254;-webkit-transform: translate(-44.77px, 161.03px) rotate(-48.72deg);transform: translate(-44.77px, 161.03px) rotate(-48.72deg);}#el_rkJW7hjREnX{fill: #004254;-webkit-transform: matrix(0.66,, -0.75,, 0.75,, 0.66,, -50.56,, 160.03);transform: matrix(0.66,, -0.75,, 0.75,, 0.66,, -50.56,, 160.03);}#el_ryxZm3oANnX{fill: #004254;-webkit-transform: translate(30.97px, 150.27px) rotate(-32.81deg);transform: translate(30.97px, 150.27px) rotate(-32.81deg);}#el_S1-bQ3jA4h7{fill: #004254;-webkit-transform: translate(28.53px, 147.77px) rotate(-32.63deg);transform: translate(28.53px, 147.77px) rotate(-32.63deg);}#el_BkfWQnj0Nhm{fill: #004254;-webkit-transform: translate(30.76px, 148.21px) rotate(-32.77deg);transform: translate(30.76px, 148.21px) rotate(-32.77deg);}#el_H1mbQho0EhX{fill: #004254;-webkit-transform: translate(28.68px, 149.71px) rotate(-32.64deg);transform: translate(28.68px, 149.71px) rotate(-32.64deg);}#el_HJ4W7hjR4hQ{fill: #004254;}#el_rkrbX3sRVhm{fill: #004254;-webkit-transform: translate(-34.59px, 93.12px) rotate(-20.79deg);transform: translate(-34.59px, 93.12px) rotate(-20.79deg);}#el_B1Ibm3i043Q{fill: #242d3c;}#el_B1DZm3sANhQ{fill: #004254;}#el_rkuWm2oC43m{fill: #00212a;}#el_H1FbX2iAVhX{fill: #c00;}#el_Bk9Zm2iAEhX{fill: #a3dbe8;}#el_Sys-X2j04nQ{fill: #c00;}#el_Sk3-7nj0NhX{fill: #004254;}#el_Byp-XnsRNhX{fill: #c00;}#el_HJ0-X2iCV27{fill: #b50000;}#el_SJyfmniRVhm{fill: #c00;}#el_r1xzmnoRVnQ{fill: #b50000;}#el_ByZf73iANnX{fill: #004254;}#el_ByzG7hoA4n7{fill: #004254;}#el_rymfQno0E3Q{fill: #fff;}#el_ByVMX2iCVhm{fill: #e6e5e5;}#el_B1HzX3s043Q{fill: #c00;}#el_SyUMm2iRE3Q{fill: #c00;}#el_H1DGX3iAV27{fill: #e6e5e5;}#el_SJOfQhsCNnX{fill: #cccbca;}#el_S1FGm2iRVhX{fill: #e6e5e5;}#el_rJ5MQ2jRE3Q{fill: #fff;}#el_ryiG72iRNnX{fill: #fff;}#el_SkhfXnj042m{fill: #fff;}#el_rkpzQ2oAEn7{fill: #cccbca;}#el_ryCf73i04nm{fill: #cccbca;}#el_SkJXQhsAE3Q{fill: #cccbca;}#el_Bkl7m2jAV2Q{fill: #cccbca;}#el_Sybm7noR4nQ{fill: #cccbca;}#el_ByMXQ2iCNhm{fill: #001115;}#el_rJm7QhsRN3X{fill: #242d3c;}#el_H14m73i0VnQ{fill: #242d3c;-webkit-transform: matrix(0.26,, -0.97,, 0.97,, 0.26,, 26.53,, 196.93);transform: matrix(0.26,, -0.97,, 0.97,, 0.26,, 26.53,, 196.93);}#el_SJrX7ns04hm{fill: #242d3c;-webkit-transform: translate(-4.3px, 163.78px) rotate(-60deg);transform: translate(-4.3px, 163.78px) rotate(-60deg);}#el_B1UQm3oC4hm{fill: #242d3c;-webkit-transform: translate(-23.15px, 122.95px) rotate(-45.02deg);transform: translate(-23.15px, 122.95px) rotate(-45.02deg);}#el_rkD7XhoCNn7{fill: #242d3c;-webkit-transform: translate(-28.34px, 78.82px) rotate(-29.99deg);transform: translate(-28.34px, 78.82px) rotate(-29.99deg);}#el_SJu7Q2i0E2Q{fill: #242d3c;-webkit-transform: translate(-19.99px, 36.48px) rotate(-15deg);transform: translate(-19.99px, 36.48px) rotate(-15deg);}#el_S1tXm3jRE3X{fill: #242d3c;-webkit-transform: translate(-13.73px, 39.05px) rotate(-14.99deg);transform: translate(-13.73px, 39.05px) rotate(-14.99deg);}#el_HkqXQhiREnQ{fill: #242d3c;-webkit-transform: translate(-14.94px, 78.81px) rotate(-29.98deg);transform: translate(-14.94px, 78.81px) rotate(-29.98deg);}#el_HkjQXns0427{fill: #242d3c;-webkit-transform: translate(-4.91px, 115.11px) rotate(-44.92deg);transform: translate(-4.91px, 115.11px) rotate(-44.92deg);}#el_H1hmmhoC4hX{fill: #242d3c;-webkit-transform: translate(14.06px, 145.51px) rotate(-60.03deg);transform: translate(14.06px, 145.51px) rotate(-60.03deg);}#el_ByamQ3oCE2m{fill: #242d3c;-webkit-transform: translate(38.43px, 167.64px) rotate(-74.95deg);transform: translate(38.43px, 167.64px) rotate(-74.95deg);}#el_B1DZm3sANhQ_H1xpiREh7{-webkit-animation-name: el_B1DZm3sANhQ_H1xpiREh7_Animation;animation-name: el_B1DZm3sANhQ_H1xpiREh7_Animation;-webkit-transform: translate(182.509765625px, 33.4140625px) rotate(0deg) translate(-182.509765625px, -33.4140625px);transform: translate(182.509765625px, 33.4140625px) rotate(0deg) translate(-182.509765625px, -33.4140625px);}#el_Sys-X2j04nQ_SJirh0E2m{-webkit-animation-name: el_Sys-X2j04nQ_SJirh0E2m_Animation;animation-name: el_Sys-X2j04nQ_SJirh0E2m_Animation;-webkit-transform: translate(246.8046875px, 58.470703125px) rotate(0deg) translate(-246.8046875px, -58.470703125px);transform: translate(246.8046875px, 58.470703125px) rotate(0deg) translate(-246.8046875px, -58.470703125px);}#el_Byp-XnsRNhX_S1Qj3RN3Q{-webkit-animation-name: el_Byp-XnsRNhX_S1Qj3RN3Q_Animation;animation-name: el_Byp-XnsRNhX_S1Qj3RN3Q_Animation;-webkit-transform: translate(197.880859375px, 113.16796875px) translate(-197.880859375px, -113.16796875px) translate(0px, -5px);transform: translate(197.880859375px, 113.16796875px) translate(-197.880859375px, -113.16796875px) translate(0px, -5px);-webkit-animation-timing-function: cubic-bezier(0.42, 0, 0.58, 1);animation-timing-function: cubic-bezier(0.42, 0, 0.58, 1);}#el_HJ0-X2iCV27_HJTJaAVnX{-webkit-transform: translate(162.0234375px, 81.78515625px) translate(-162.0234375px, -81.78515625px) translate(0px, 15px);transform: translate(162.0234375px, 81.78515625px) translate(-162.0234375px, -81.78515625px) translate(0px, 15px);}#el_HJ0-X2iCV27_rkpMpCVhm{-webkit-animation-name: el_HJ0-X2iCV27_rkpMpCVhm_Animation;animation-name: el_HJ0-X2iCV27_rkpMpCVhm_Animation;-webkit-transform: translate(179.951171875px, 113.107421875px) translate(-179.951171875px, -113.107421875px) translate(0px, -5px);transform: translate(179.951171875px, 113.107421875px) translate(-179.951171875px, -113.107421875px) translate(0px, -5px);-webkit-animation-timing-function: cubic-bezier(0.42, 0, 0.58, 1);animation-timing-function: cubic-bezier(0.42, 0, 0.58, 1);}#el_SJyfmniRVhm_HkIkC0N37{-webkit-animation-name: el_SJyfmniRVhm_HkIkC0N37_Animation;animation-name: el_SJyfmniRVhm_HkIkC0N37_Animation;-webkit-transform: translate(270.380859375px, 128.22265625px) translate(-270.380859375px, -128.22265625px) translate(0px, 5px);transform: translate(270.380859375px, 128.22265625px) translate(-270.380859375px, -128.22265625px) translate(0px, 5px);-webkit-animation-timing-function: cubic-bezier(0.42, 0, 0.58, 1);animation-timing-function: cubic-bezier(0.42, 0, 0.58, 1);}#el_r1xzmnoRVnQ_B1Mb00EhX{-webkit-animation-name: el_r1xzmnoRVnQ_B1Mb00EhX_Animation;animation-name: el_r1xzmnoRVnQ_B1Mb00EhX_Animation;-webkit-animation-timing-function: cubic-bezier(0.42, 0, 0.58, 1);animation-timing-function: cubic-bezier(0.42, 0, 0.58, 1);-webkit-transform: translate(258.234375px, 128.19921875px) translate(-258.234375px, -128.19921875px) translate(0px, 5px);transform: translate(258.234375px, 128.19921875px) translate(-258.234375px, -128.19921875px) translate(0px, 5px);}#el_ByLgm3iR42Q_SkzZJkS3Q{-webkit-transform: translate(272.48828125px, 79.28125px) rotate(360deg) translate(-272.48828125px, -79.28125px);transform: translate(272.48828125px, 79.28125px) rotate(360deg) translate(-272.48828125px, -79.28125px);}</style><defs/><title>Asset 1</title><g id="el_Sy4gQhoRE3Q" data-name="Layer 2"><g id="el_SkSxQ3jR4nX" data-name="Capa 1"><path d="M282.74,93.88l-.56-1.47a6.09,6.09,0,0,0,1.19-.61l.87,1.31A7.66,7.66,0,0,1,282.74,93.88Zm-1.64.42a7.62,7.62,0,0,1-1.69,0l.13-1.57a6,6,0,0,0,1.34,0ZM285.54,92l-1.14-1.08a5.93,5.93,0,0,0,.8-1.07l1.36.8A7.58,7.58,0,0,1,285.54,92Zm-7.79,2a7.58,7.58,0,0,1-1.54-.69L277,92a6.06,6.06,0,0,0,1.22.55Zm9.5-4.89-1.5-.48a6,6,0,0,0,.26-1.31l1.57.13A7.8,7.8,0,0,1,287.25,89.12Zm-12.4,3.19A7.65,7.65,0,0,1,273.76,91l1.31-.88a6,6,0,0,0,.86,1Zm12.68-6.54L286,86a6,6,0,0,0-.33-1.3l1.46-.58v0A7.51,7.51,0,0,1,287.54,85.77ZM273,89.51h0a7.56,7.56,0,0,1-.42-1.62l1.56-.22a5.9,5.9,0,0,0,.33,1.29Zm12-6a5.74,5.74,0,0,0-.87-1l1.08-1.15a7.68,7.68,0,0,1,1.1,1.29Zm-10.94,2.84-1.57-.13a7.66,7.66,0,0,1,.33-1.66l1.5.48A6.18,6.18,0,0,0,274.08,86.32Zm9-4.66a6,6,0,0,0-1.22-.55l.48-1.5a7.53,7.53,0,0,1,1.54.69Zm-8.19,2.12-1.36-.8a7.61,7.61,0,0,1,1-1.35l1.15,1.08A6,6,0,0,0,274.9,83.78Zm5.65-2.93a6,6,0,0,0-1.34,0L279,79.33a7.61,7.61,0,0,1,1.7,0Zm-3.83,1-.88-1.31a7.6,7.6,0,0,1,1.5-.78l.56,1.47A6.16,6.16,0,0,0,276.72,81.84Z" id="el_ByLgm3iR42Q"/><path d="M318,93.71h0a4.62,4.62,0,0,1-1.78.3l0-1.57a3.05,3.05,0,0,0,1.18-.2Zm1.54-1-1.08-1.14a3.08,3.08,0,0,0,.7-1l1.44.65A4.67,4.67,0,0,1,319.54,92.74Zm-5.11.87a4.63,4.63,0,0,1-1.49-1l1.14-1.09a3.09,3.09,0,0,0,1,.69ZM321,89.49l-1.57,0a3.07,3.07,0,0,0-.2-1.19l1.45-.62,0,.06A4.63,4.63,0,0,1,321,89.49ZM312,91v0a4.67,4.67,0,0,1-.31-1.77l1.57,0a3.11,3.11,0,0,0,.2,1.17Zm6.59-3.82a3.08,3.08,0,0,0-1-.69l.63-1.44a4.66,4.66,0,0,1,1.49,1Zm-5.06.89-1.44-.63a4.65,4.65,0,0,1,1-1.49l1.09,1.14A3.09,3.09,0,0,0,313.5,88.1Zm2.89-1.85a3.09,3.09,0,0,0-1.16.2L314.64,85h0a4.64,4.64,0,0,1,1.76-.3Z" id="el_HkveQnjA4nX"/><rect x="155.84" y="131.61" width="5.05" height="1.57" id="el_Syug7hoA43X"/><polygon points="150.21 133.74 145.19 134.1 145.07 132.53 150.1 132.17 150.21 133.74" id="el_BJtgmhiRN37"/><rect x="151.85" y="124.89" width="1.58" height="5.04" id="el_rJcxXhs0Vnm"/><rect x="152.58" y="135.6" width="1.58" height="5.05" id="el_H1slmnoANnQ"/><rect x="155.02" y="134.34" width="1.58" height="1.74" id="el_Sy3xm2o0E3X"/><rect x="149.41" y="129.46" width="1.58" height="1.74" id="el_By6x73sREnm"/><rect x="154.58" y="129.17" width="1.73" height="1.58" id="el_HyReX3oRNnQ"/><rect x="149.69" y="134.78" width="1.74" height="1.58" id="el_rkJW7hjREnX"/><rect x="269.6" y="21.75" width="2.27" height="1.57" id="el_ryxZm3oANnX"/><rect x="265.52" y="24.37" width="2.28" height="1.58" id="el_S1-bQ3jA4h7"/><rect x="266.6" y="20.67" width="1.57" height="2.28" id="el_BkfWQnj0Nhm"/><rect x="269.22" y="24.75" width="1.58" height="2.27" id="el_H1mbQho0EhX"/><path d="M303.12,51a5.05,5.05,0,1,1-6.52-2.94A5.06,5.06,0,0,1,303.12,51Z" id="el_HJ4W7hjR4hQ"/><circle cx="236.5" cy="140.84" r="2.59" id="el_rkrbX3sRVhm"/><path d="M236.78,19.34a3.56,3.56,0,1,1-4.59-2.06A3.56,3.56,0,0,1,236.78,19.34Z" id="el_B1Ibm3i043Q"/><g id="el_B1DZm3sANhQ_H1xpiREh7" data-animator-group="true" data-animator-type="1"><path d="M210.35,33.39a6.11,6.11,0,0,1,5.55-6.08A33.46,33.46,0,0,0,214.48,22a6.11,6.11,0,0,1-6.09-10.53,33.84,33.84,0,0,0-3.91-3.91,6.11,6.11,0,0,1-10.53-6.09A33.46,33.46,0,0,0,188.59,0a6.11,6.11,0,0,1-6.08,5.55A6.11,6.11,0,0,1,176.42,0a33.47,33.47,0,0,0-5.35,1.42,6.11,6.11,0,0,1-10.53,6.09,34,34,0,0,0-3.91,3.91A6.11,6.11,0,0,1,150.54,22a33.93,33.93,0,0,0-1.42,5.36,6.11,6.11,0,0,1,0,12.16,33.78,33.78,0,0,0,1.42,5.35,6.11,6.11,0,0,1,6.1,10.53,34.18,34.18,0,0,0,3.91,3.91,6.11,6.11,0,0,1,10.53,6.09,33.47,33.47,0,0,0,5.35,1.43,6.11,6.11,0,0,1,12.17,0,33.46,33.46,0,0,0,5.35-1.43,6.11,6.11,0,0,1,10.53-6.09,34,34,0,0,0,3.91-3.91,6.11,6.11,0,0,1,6.09-10.53,33.32,33.32,0,0,0,1.42-5.35A6.11,6.11,0,0,1,210.35,33.39ZM182.51,56a22.63,22.63,0,1,1,22.63-22.63A22.64,22.64,0,0,1,182.51,56Z" id="el_B1DZm3sANhQ"/></g><circle cx="182.51" cy="33.39" r="9.05" id="el_rkuWm2oC43m"/><circle cx="182.51" cy="33.39" r="4.45" id="el_H1FbX2iAVhX"/><path d="M182.52,50.82h0a17.62,17.62,0,0,1-3.38-.33l.61-3.11a14.41,14.41,0,0,0,2.77.27Zm3.4-.33-.62-3.11a14.14,14.14,0,0,0,2.67-.81l1.21,2.93A17.52,17.52,0,0,1,185.92,50.49Zm-10.06-1a17.45,17.45,0,0,1-3-1.61l1.76-2.64a14.24,14.24,0,0,0,2.46,1.31Zm16.34-1.63-1.76-2.63a14.33,14.33,0,0,0,2.16-1.78l2.24,2.24A17.65,17.65,0,0,1,192.2,47.88Zm-22-2.14A17.59,17.59,0,0,1,168,43.1l2.63-1.77a14.44,14.44,0,0,0,1.78,2.16ZM197,43.07l-2.64-1.76a14,14,0,0,0,1.32-2.46l2.93,1.21A17.61,17.61,0,0,1,197,43.07Zm-30.59-3a17.26,17.26,0,0,1-1-3.27l3.11-.62a14,14,0,0,0,.81,2.67Zm33.19-3.3-3.11-.61a14.51,14.51,0,0,0,.27-2.78v-.07h3.17v0A17.71,17.71,0,0,1,199.6,36.79Zm-34.52-3.36v-.07A17.37,17.37,0,0,1,165.4,30l3.11.61a14.36,14.36,0,0,0-.26,2.75Zm31.4-2.88a14.18,14.18,0,0,0-.82-2.67l2.92-1.22a17.58,17.58,0,0,1,1,3.27ZM169.32,28l-2.93-1.21a17.38,17.38,0,0,1,1.6-3l2.64,1.76A14.24,14.24,0,0,0,169.32,28Zm25-2.54a14.37,14.37,0,0,0-1.78-2.15L194.78,21A17.65,17.65,0,0,1,197,23.66ZM172.4,23.34l-2.25-2.23a17.5,17.5,0,0,1,2.63-2.17l1.77,2.63A14.36,14.36,0,0,0,172.4,23.34Zm18-1.83a14.24,14.24,0,0,0-2.47-1.31l1.2-2.93a17.28,17.28,0,0,1,3,1.6ZM177,20.23l-1.22-2.92a17.34,17.34,0,0,1,3.27-1l.62,3.11A14.19,14.19,0,0,0,177,20.23Zm8.23-.84a14.39,14.39,0,0,0-2.74-.26h-.05V16h0a17.64,17.64,0,0,1,3.37.32Z" id="el_Bk9Zm2iAEhX"/><g id="el_Sys-X2j04nQ_SJirh0E2m" data-animator-group="true" data-animator-type="1"><path d="M230.16,51.35a4,4,0,0,1-4.89,2.22,21.49,21.49,0,0,0-.52,3.57A4,4,0,0,1,225.7,65,23,23,0,0,0,227,68.35a4,4,0,0,1,4.75,6.35,21.64,21.64,0,0,0,2.84,2.22A4,4,0,0,1,241.9,80a21.7,21.7,0,0,0,3.57.52,4,4,0,0,1,7.86-.95,22.81,22.81,0,0,0,3.35-1.34A4,4,0,0,1,263,73.53a22,22,0,0,0,2.22-2.84,4,4,0,0,1,3.12-7.28,22,22,0,0,0,.52-3.57,4,4,0,0,1-.95-7.86,22.58,22.58,0,0,0-1.34-3.35,4,4,0,0,1-4.74-6.35A22.13,22.13,0,0,0,259,40.06a4,4,0,0,1-7.28-3.12,22.15,22.15,0,0,0-3.57-.52,4,4,0,0,1-7.87.95A22.93,22.93,0,0,0,237,38.71a4,4,0,0,1-6.34,4.74,21.54,21.54,0,0,0-2.22,2.84A4,4,0,0,1,230.16,51.35Zm20.56-2a9.9,9.9,0,1,1-13,5.2A9.9,9.9,0,0,1,250.71,49.39Z" id="el_Sys-X2j04nQ"/></g><path d="M251.62,47.29a12.19,12.19,0,1,1-16,6.4A12.2,12.2,0,0,1,251.62,47.29Zm-7.79,18.19a7.61,7.61,0,1,0-4-10A7.62,7.62,0,0,0,243.82,65.48Z" id="el_Sk3-7nj0NhX"/><g id="el_Byp-XnsRNhX_S1Qj3RN3Q" data-animator-group="true" data-animator-type="0"><path d="M168.27,88a21.12,21.12,0,0,0,0,30C197.91,144.62,198,144.54,198,144.54s0,0,29.49-26.48a21.12,21.12,0,0,0,0-30c-10.71-10.71-21.15-6-29.59,1.6-8.43-7.58-19-12.22-29.58-1.6Zm0,0" id="el_Byp-XnsRNhX"/></g><g id="el_HJ0-X2iCV27_rkpMpCVhm" data-animator-group="true" data-animator-type="0"><path d="M197.86,89.6c-8.43-7.58-19-12.22-29.58-1.59a21.11,21.11,0,0,0,0,30c25.65,23,29.13,26,29.6,26.42V89.58l0,0Zm0,0" id="el_HJ0-X2iCV27"/></g><g id="el_SJyfmniRVhm_HkIkC0N37" data-animator-group="true" data-animator-type="0"><path d="M250.31,111.15a14.33,14.33,0,0,0,0,20.39c20.11,18,20.14,18,20.14,18s0,0,20-18a14.33,14.33,0,0,0,0-20.39c-7.26-7.26-14.35-4.06-20.07,1.08-5.72-5.14-12.87-8.29-20.07-1.08Zm0,0" id="el_SJyfmniRVhm"/></g><g id="el_r1xzmnoRVnQ_B1Mb00EhX" data-animator-group="true" data-animator-type="0"><path d="M270.39,112.23c-5.72-5.14-12.87-8.29-20.07-1.08a14.33,14.33,0,0,0,0,20.39c17.41,15.61,19.76,17.66,20.09,17.93V112.22Zm0,0" id="el_r1xzmnoRVnQ"/></g><circle cx="123.81" cy="76.45" r="10.83" id="el_ByZf73iANnX"/><rect x="15.57" y="51.47" width="49.96" height="49.96" id="el_ByzG7hoA4n7"/><rect x="22.23" y="58.13" width="36.64" height="6.66" id="el_rymfQno0E3Q"/><polygon points="115.49 121.5 65.53 101.43 65.53 51.47 115.49 31.4 115.49 121.5" id="el_ByVMX2iCVhm"/><rect x="5.21" y="58.13" width="10.41" height="36.64" id="el_B1HzX3s043Q"/><rect x="115.49" y="27.32" width="8.32" height="98.26" id="el_SyUMm2iRE3Q"/><rect y="64.79" width="5.21" height="23.31" id="el_H1DGX3iAV27"/><rect x="21.89" y="101.43" width="37.3" height="5.2" id="el_SJOfQhsCNnX"/><polygon points="52.87 106.63 52.87 154.93 40.55 154.93 28.22 106.63 52.87 106.63" id="el_S1FGm2iRVhX"/><rect x="38.88" y="68.12" width="3.33" height="3.33" id="el_rJ5MQ2jRE3Q"/><rect x="32.22" y="68.12" width="3.33" height="3.33" id="el_ryiG72iRNnX"/><rect x="25.56" y="68.12" width="3.33" height="3.33" id="el_SkhfXnj042m"/><rect x="46.7" y="114.13" width="6.17" height="3.33" id="el_rkpzQ2oAEn7"/><rect x="46.7" y="121.63" width="6.17" height="3.32" id="el_ryCf73i04nm"/><rect x="46.7" y="129.11" width="6.17" height="3.33" id="el_SkJXQhsAE3Q"/><rect x="46.7" y="136.61" width="6.17" height="3.33" id="el_Bkl7m2jAV2Q"/><rect x="46.7" y="144.1" width="6.17" height="3.33" id="el_Sybm7noR4nQ"/><rect x="52.87" y="106.63" width="3.16" height="10.83" id="el_ByMXQ2iCNhm"/><rect x="139.63" y="75.62" width="5" height="1.66" id="el_rJm7QhsRN3X"/><rect x="140.67" y="78.69" width="1.67" height="5" id="el_H14m73i0VnQ"/><rect x="138.84" y="83.11" width="1.67" height="5" id="el_SJrX7ns04hm"/><rect x="135.93" y="86.9" width="1.66" height="5" id="el_B1UQm3oC4hm"/><rect x="132.14" y="89.82" width="1.67" height="4.99" id="el_rkD7XhoCNn7"/><rect x="127.72" y="91.65" width="1.66" height="4.99" id="el_SJu7Q2i0E2Q"/><rect x="139.01" y="70.88" width="5" height="1.66" id="el_S1tXm3jRE3X"/><rect x="137.18" y="66.46" width="5" height="1.67" id="el_HkqXQhiREnQ"/><rect x="134.27" y="62.67" width="5" height="1.66" id="el_HkjQXns0427"/><rect x="130.47" y="59.76" width="5" height="1.66" id="el_H1hmmhoC4hX"/><rect x="126.06" y="57.93" width="5" height="1.66" id="el_ByamQ3oCE2m"/></g></g></svg>